<svg width="332" height="391" viewBox="0 0 332 391" fill="none" xmlns="http://www.w3.org/2000/svg">
<path d="M241.768 188.822C244.9 177.354 249.119 159.177 254.462 140.253C259.804 121.329 274.963 72.0915 274.963 72.0915L176.75 46.3115C176.75 46.3115 153.854 144.542 144.87 178.832C140.089 197.383 94.5789 216.808 46.8731 241.253C-11.3819 270.771 29.8511 325.06 64.3021 332.083C81.3222 335.65 97.3905 330.627 110.806 320.573L160.957 287.059C172.042 279.849 186.617 275.01 200.053 273.356C219.872 270.855 240.055 258.08 245.179 238.33C251.677 213.784 238.897 200.44 241.768 188.822Z" fill="url(#paint0_linear_275_22)"/>
<path d="M245.181 238.33C250.428 218.547 243.132 206.038 241.62 195.83C215.673 194.397 191.607 210.725 184.952 236.089C181.377 249.711 183.53 263.505 189.854 275.172C193.298 274.371 196.703 273.757 200.055 273.356C219.873 270.855 240.056 258.08 245.181 238.33Z" fill="#F57C00"/>
<path d="M259.436 120.766L166.919 96.5375C162.154 95.1757 159.803 89.6199 161.369 83.8863L171.617 44.3867C173.183 38.6531 178.13 34.8779 182.634 36.089L275.152 60.3174C279.917 61.6792 282.268 67.235 280.702 72.9686L270.454 112.468C269.148 118.352 264.201 122.128 259.436 120.766Z" fill="#F57C00"/>
<path d="M185.521 86.6779L184.647 86.4516C182.025 85.7727 180.578 82.6679 181.275 79.9233L188.358 57.1849C189.212 54.1884 192.061 52.8781 194.683 53.557L195.557 53.7833C198.18 54.4622 199.627 57.567 198.929 60.3117L191.847 83.05C191.231 86.2059 188.225 87.768 185.521 86.6779Z" fill="#FBC02D"/>
<path d="M206.175 92.3587L205.301 92.1326C202.679 91.454 201.233 88.349 201.931 85.6038L209.014 62.8608C209.869 59.8637 212.716 58.5527 215.338 59.2312L216.212 59.4574C218.834 60.1359 220.28 63.2409 219.582 65.9861L212.499 88.7292C211.802 91.4744 208.797 93.0373 206.175 92.3587Z" fill="#FBC02D"/>
<path d="M226.728 97.6215L225.854 97.3953C223.232 96.7167 221.786 93.6117 222.484 90.8666L229.567 68.1244C230.421 65.1274 233.269 63.8166 235.891 64.4952L236.765 64.7214C239.387 65.4 240.833 68.5049 240.136 71.25L233.053 93.9923C232.355 96.7374 229.589 98.4594 226.728 97.6215Z" fill="#FBC02D"/>
<path d="M247.531 103.007L246.656 102.782C244.032 102.105 242.586 99.0034 243.285 96.2603L250.383 73.5338C251.082 70.7906 254.091 69.2277 256.715 69.9045L257.589 70.1301C260.213 70.8068 261.66 73.9085 260.96 76.6516L253.862 99.3781C253.006 102.373 249.997 103.936 247.531 103.007Z" fill="#FBC02D"/>
<path d="M60.2555 286.331C48.4273 262.354 49.0107 246.999 50.8357 239.249C49.5149 239.917 48.1942 240.585 46.8995 241.268C-11.3556 270.786 29.8775 325.075 64.3285 332.098C76.9614 334.732 89.0503 332.647 99.9408 327.281C89.1478 322.113 72.0822 310.551 60.2555 286.331Z" fill="#F57C00"/>
<defs>
<linearGradient id="paint0_linear_275_22" x1="123.149" y1="189.697" x2="259.014" y2="215.495" gradientUnits="userSpaceOnUse">
<stop offset="0.461" stop-color="#FFB300"/>
<stop offset="1" stop-color="#FF8F00"/>
</linearGradient>
</defs>
</svg>
