<svg width="372" height="389" viewBox="0 0 372 389" fill="none" xmlns="http://www.w3.org/2000/svg">
<path d="M266.295 240.944C274.108 232.188 286.432 218.006 300.097 203.903C313.762 189.799 349.837 153.026 349.837 153.026L275.022 84.1786C275.022 84.1786 209.567 160.554 185.456 186.782C172.613 200.663 123.149 196.828 70.0135 195.759C4.75757 194.661 15.9606 261.963 43.2641 284.418C56.7312 295.364 73.0802 298.892 89.5438 296.195L149.177 290.192C162.311 289.062 177.511 291.575 190.01 296.368C208.575 303.276 232.378 301.685 246.127 286.232C263.699 267.75 258.331 249.962 266.295 240.944Z" fill="url(#paint0_linear_275_23)"/>
<path d="M63.0583 245.204C57.6538 215.127 65.0182 200.764 68.6939 195.763C4.96832 195.621 16.1542 262.11 43.2647 284.418C56.7318 295.364 73.0808 298.891 89.5444 296.195L91.3879 296.004C82.9696 289.241 68.0492 273.469 63.0583 245.204Z" fill="#F57C00"/>
<path d="M185.558 271.386C181.636 278.201 179.221 285.47 178.22 292.754C182.293 293.75 186.287 294.945 190.011 296.368C208.576 303.277 232.379 301.685 246.128 286.232C258.758 272.962 259.543 260.03 261.95 250.485C261.523 250.202 261.111 249.894 260.642 249.623C234.794 234.581 201.194 244.338 185.558 271.386Z" fill="#F57C00"/>
<path d="M313.546 188.974L243.069 124.038C239.511 120.579 239.885 114.505 243.792 110.127L271.247 79.895C275.154 75.5172 281.277 74.5198 284.985 77.7164L355.462 142.653C359.02 146.112 358.646 152.186 354.739 156.564L327.283 186.796C322.966 191.285 316.843 192.282 313.546 188.974Z" fill="#EA6100"/>
<path d="M264.43 124.877L263.801 124.163C261.502 122.132 261.45 118.607 263.328 116.549L279.516 98.664C281.545 96.344 285.051 96.2777 287.09 98.1577L287.719 98.8718C290.018 100.902 290.07 104.428 288.192 106.485L272.004 124.37C269.975 126.69 266.729 126.907 264.43 124.877Z" fill="#F9A825"/>
<path d="M279.963 139.466L279.334 138.752C277.035 136.721 276.983 133.196 278.861 131.138L295.049 113.253C297.078 110.933 300.584 110.867 302.623 112.747L303.252 113.461C305.551 115.491 305.603 119.016 303.725 121.074L287.537 138.959C285.508 141.279 282.262 141.496 279.963 139.466Z" fill="#F9A825"/>
<path d="M295.645 153.791L295.015 153.077C292.716 151.047 292.664 147.522 294.542 145.464L310.73 127.579C312.759 125.259 316.265 125.192 318.304 127.072L318.934 127.786C321.233 129.817 321.285 133.342 319.407 135.4L303.479 153.436C301.45 155.756 297.944 155.822 295.645 153.791Z" fill="#F9A825"/>
<path d="M311.589 168.269L310.959 167.554C308.66 165.524 308.608 161.999 310.486 159.941L326.675 142.056C328.703 139.736 332.209 139.67 334.248 141.55L334.878 142.264C337.177 144.294 337.229 147.819 335.351 149.877L319.163 167.762C317.134 170.082 313.628 170.149 311.589 168.269Z" fill="#F9A825"/>
<defs>
<linearGradient id="paint0_linear_275_23" x1="161.212" y1="185.953" x2="261.662" y2="265.513" gradientUnits="userSpaceOnUse">
<stop offset="0.461" stop-color="#FFB300"/>
<stop offset="0.9157" stop-color="#FF8F00"/>
</linearGradient>
</defs>
</svg>
