<svg width="38" height="38" viewBox="0 0 38 38" fill="none" xmlns="http://www.w3.org/2000/svg">
<path d="M22.8968 17.1397C23.318 16.1888 23.972 14.6576 24.7419 13.0964C25.5118 11.5352 27.557 7.45232 27.557 7.45232L19.3189 3.70258C19.3189 3.70258 15.874 11.9233 14.5526 14.7911C13.8462 16.311 9.5477 17.3413 5.01409 18.7049C-0.547726 20.3975 2.25561 25.7573 5.18851 26.9009C6.63155 27.4541 8.11457 27.3039 9.43587 26.6264L14.3255 24.4898C15.4077 24.0353 16.7653 23.8311 17.9569 23.8927C19.7209 23.9665 21.6948 23.1814 22.4346 21.5042C23.4151 19.4675 22.4701 18.1167 22.8968 17.1397Z" fill="url(#paint0_linear_133_30)"/>
<path d="M5.78633 23.058C4.49981 20.6736 4.72848 19.2629 4.90232 18.7413C-0.503439 20.4726 2.27602 25.7644 5.18853 26.9009C6.63157 27.4541 8.11459 27.3038 9.43589 26.6264L9.58691 26.56C8.68703 26.2208 6.98788 25.3011 5.78633 23.058Z" fill="#F57C00"/>
<path d="M16.8914 21.9112C16.7466 22.5923 16.7421 23.2703 16.8578 23.911C17.2306 23.8834 17.602 23.8748 17.9569 23.8927C19.7209 23.9665 21.6948 23.1813 22.4346 21.5042C23.1397 20.0414 22.85 18.9312 22.7912 18.0618C22.7472 18.0497 22.7038 18.035 22.6566 18.025C20.0513 17.4657 17.4718 19.2063 16.8914 21.9112Z" fill="#F57C00"/>
<path d="M25.4707 11.4717L17.708 7.93249C17.3112 7.73861 17.1756 7.21698 17.3862 6.74154L18.8809 3.44518C19.0914 2.96974 19.5829 2.71829 19.9854 2.88596L27.748 6.42513C28.1449 6.619 28.2804 7.14063 28.0698 7.61608L26.5752 10.9124C26.3328 11.4085 25.8413 11.66 25.4707 11.4717Z" fill="#EA6100"/>
<path d="M19.542 7.41877L19.469 7.37587C19.2182 7.2678 19.1167 6.97244 19.2192 6.74781L20.0988 4.79921C20.2069 4.54839 20.5023 4.44689 20.7269 4.5494L20.7999 4.5923C21.0507 4.70037 21.1522 4.99573 21.0497 5.22036L20.1701 7.16896C20.062 7.41978 19.7928 7.52684 19.542 7.41877Z" fill="#F9A825"/>
<path d="M21.2604 8.22212L21.1874 8.17922C20.9366 8.07115 20.8351 7.77578 20.9376 7.55116L21.8172 5.60255C21.9253 5.35173 22.2206 5.25024 22.4453 5.35274L22.5183 5.39564C22.7691 5.50371 22.8706 5.79908 22.7681 6.0237L21.8885 7.97231C21.7804 8.22313 21.5112 8.33019 21.2604 8.22212Z" fill="#F9A825"/>
<path d="M22.9844 8.99925L22.9114 8.95635C22.6606 8.84827 22.5591 8.55291 22.6616 8.32828L23.5412 6.37968C23.6493 6.12886 23.9446 6.02737 24.1693 6.12987L24.2423 6.17277C24.4931 6.28084 24.5946 6.57621 24.4921 6.80083L23.6387 8.755C23.5306 9.00582 23.2352 9.10732 22.9844 8.99925Z" fill="#F9A825"/>
<path d="M24.7346 9.78195L24.6616 9.73905C24.4107 9.63098 24.3092 9.33562 24.4118 9.11099L25.2914 7.16239C25.3995 6.91157 25.6948 6.81007 25.9194 6.91258L25.9925 6.95548C26.2433 7.06355 26.3448 7.35891 26.2423 7.58354L25.3626 9.53214C25.2546 9.78296 24.9592 9.88446 24.7346 9.78195Z" fill="#FBC02D"/>
<path d="M32.7367 17.8622C32.6863 16.8111 32.5433 15.1653 32.475 13.4259C32.4066 11.6865 32.3355 7.12642 32.3355 7.12642L23.3001 7.64265C23.3001 7.64265 24.0649 16.5392 24.2478 19.6719C24.3534 21.3645 21.0307 24.2449 17.66 27.6079C13.5349 31.6867 18.5254 35.1295 21.6392 34.7783C23.1801 34.613 24.4039 33.7506 25.2641 32.5371L28.5922 28.3436C29.3333 27.4334 30.4355 26.6272 31.5289 26.1204C33.14 25.3677 34.499 23.74 34.3894 21.9371C34.2641 19.6927 32.8132 18.9189 32.7367 17.8622Z" fill="url(#paint1_linear_133_30)"/>
<path d="M34.3895 21.937C34.2894 20.1279 33.3264 19.2743 32.9171 18.4563C30.6782 19.0455 29.0879 21.0785 29.2223 23.3959C29.2945 24.6406 29.8569 25.7431 30.7144 26.5523C30.9842 26.3906 31.2559 26.2458 31.529 26.1204C33.1401 25.3677 34.4991 23.74 34.3895 21.937Z" fill="#F57C00"/>
<path d="M32.3597 11.6491L23.85 12.1402C23.4086 12.1559 23.0563 11.7524 23.0311 11.2269L22.8119 7.621C22.7867 7.09545 23.102 6.64227 23.5173 6.62101L32.027 6.12997C32.4684 6.11428 32.8207 6.51771 32.8459 7.04327L33.0651 10.6492C33.1165 11.1803 32.8012 11.6335 32.3597 11.6491Z" fill="#F57C00"/>
<path d="M25.2263 10.8174L25.1421 10.8269C24.8897 10.8554 24.6611 10.6425 24.6326 10.39L24.5113 8.25605C24.4884 7.97739 24.6957 7.77504 24.9481 7.74656L25.0323 7.73707C25.2847 7.7086 25.5133 7.92145 25.5418 8.17392L25.6631 10.3079C25.7122 10.5921 25.4994 10.8207 25.2263 10.8174Z" fill="#FBC02D"/>
<path d="M27.134 10.7301L27.0498 10.7395C26.7974 10.768 26.5688 10.5552 26.5404 10.3027L26.419 8.16871C26.3961 7.89005 26.6034 7.6877 26.8558 7.65922L26.94 7.64973C27.1925 7.62125 27.421 7.83411 27.4495 8.08657L27.5708 10.2206C27.5993 10.473 27.3865 10.7016 27.134 10.7301Z" fill="#FBC02D"/>
<path d="M29.0211 10.611L28.937 10.6205C28.6845 10.6489 28.456 10.4361 28.4275 10.1836L28.3061 8.04964C28.2832 7.77098 28.4905 7.56862 28.743 7.54015L28.8271 7.53066C29.0796 7.50218 29.3081 7.71504 29.3366 7.9675L29.458 10.1015C29.4864 10.354 29.2998 10.5881 29.0211 10.611Z" fill="#FBC02D"/>
<path d="M30.9343 10.4975L30.8501 10.5069C30.5977 10.5354 30.3691 10.3226 30.3406 10.0701L30.2193 7.93611C30.1908 7.68364 30.4036 7.45509 30.6561 7.42662L30.7403 7.41713C30.9927 7.38865 31.2213 7.60151 31.2498 7.85397L31.3711 9.98797C31.394 10.2666 31.1812 10.4952 30.9343 10.4975Z" fill="#FBC02D"/>
<path d="M20.0359 31.037C18.3729 29.3419 17.9995 28.0332 17.9407 27.3308C17.8471 27.4232 17.7536 27.5155 17.6626 27.6085C13.5375 31.6873 18.528 35.13 21.6418 34.7788C22.7851 34.655 23.7525 34.1487 24.5278 33.3991C23.4706 33.2592 21.7055 32.7526 20.0359 31.037Z" fill="#F57C00"/>
<defs>
<linearGradient id="paint0_linear_133_30" x1="12.4746" y1="15.3845" x2="23.163" y2="19.3825" gradientUnits="userSpaceOnUse">
<stop offset="0.461" stop-color="#FFB300"/>
<stop offset="0.9157" stop-color="#FF8F00"/>
</linearGradient>
<linearGradient id="paint1_linear_133_30" x1="22.7058" y1="21.1808" x2="34.9305" y2="19.6153" gradientUnits="userSpaceOnUse">
<stop offset="0.461" stop-color="#FFB300"/>
<stop offset="1" stop-color="#FF8F00"/>
</linearGradient>
</defs>
</svg>
